<mxfile host="app.diagrams.net" modified="2021-08-09T06:37:03.622Z" agent="5.0 (Macintosh; Intel Mac OS X 10_15_5) AppleWebKit/537.36 (KHTML, like Gecko) Chrome/92.0.4515.131 Safari/537.36" etag="ZcQ7Ag9Fao8VxN1a1009" version="14.9.5" type="github">
  <diagram id="C5RBs43oDa-KdzZeNtuy" name="Page-1">
    <mxGraphModel dx="959" dy="661" grid="1" gridSize="10" guides="1" tooltips="1" connect="1" arrows="1" fold="1" page="1" pageScale="1" pageWidth="827" pageHeight="1169" math="0" shadow="0">
      <root>
        <mxCell id="WIyWlLk6GJQsqaUBKTNV-0" />
        <mxCell id="WIyWlLk6GJQsqaUBKTNV-1" parent="WIyWlLk6GJQsqaUBKTNV-0" />
        <mxCell id="QECgvXRe7AXAUNzWZ8xF-6" value="" style="edgeStyle=orthogonalEdgeStyle;curved=0;rounded=1;sketch=0;orthogonalLoop=1;jettySize=auto;html=1;fontColor=#46495D;strokeColor=#788AA3;fillColor=#B2C9AB;" edge="1" parent="WIyWlLk6GJQsqaUBKTNV-1" source="QECgvXRe7AXAUNzWZ8xF-1" target="QECgvXRe7AXAUNzWZ8xF-5">
          <mxGeometry relative="1" as="geometry" />
        </mxCell>
        <mxCell id="QECgvXRe7AXAUNzWZ8xF-1" value="开始" style="ellipse;whiteSpace=wrap;html=1;shadow=0;strokeWidth=1;glass=0;sketch=1;fillColor=#B2C9AB;strokeColor=#788AA3;fontColor=#46495D;" vertex="1" parent="WIyWlLk6GJQsqaUBKTNV-1">
          <mxGeometry x="160" y="30" width="120" height="60" as="geometry" />
        </mxCell>
        <mxCell id="QECgvXRe7AXAUNzWZ8xF-8" value="" style="edgeStyle=orthogonalEdgeStyle;curved=0;rounded=1;sketch=0;orthogonalLoop=1;jettySize=auto;html=1;fontColor=#46495D;strokeColor=#788AA3;fillColor=#B2C9AB;" edge="1" parent="WIyWlLk6GJQsqaUBKTNV-1" source="QECgvXRe7AXAUNzWZ8xF-5" target="QECgvXRe7AXAUNzWZ8xF-7">
          <mxGeometry relative="1" as="geometry" />
        </mxCell>
        <mxCell id="QECgvXRe7AXAUNzWZ8xF-5" value="选商品" style="whiteSpace=wrap;html=1;shadow=0;fontColor=#46495D;strokeColor=#788AA3;strokeWidth=1;fillColor=#B2C9AB;glass=0;sketch=1;" vertex="1" parent="WIyWlLk6GJQsqaUBKTNV-1">
          <mxGeometry x="160" y="170" width="120" height="60" as="geometry" />
        </mxCell>
        <mxCell id="QECgvXRe7AXAUNzWZ8xF-10" value="" style="edgeStyle=orthogonalEdgeStyle;curved=0;rounded=1;sketch=0;orthogonalLoop=1;jettySize=auto;html=1;fontColor=#46495D;strokeColor=#788AA3;fillColor=#B2C9AB;" edge="1" parent="WIyWlLk6GJQsqaUBKTNV-1" source="QECgvXRe7AXAUNzWZ8xF-7" target="QECgvXRe7AXAUNzWZ8xF-9">
          <mxGeometry relative="1" as="geometry" />
        </mxCell>
        <mxCell id="QECgvXRe7AXAUNzWZ8xF-7" value="购买" style="whiteSpace=wrap;html=1;shadow=0;fontColor=#46495D;strokeColor=#788AA3;strokeWidth=1;fillColor=#B2C9AB;glass=0;sketch=1;" vertex="1" parent="WIyWlLk6GJQsqaUBKTNV-1">
          <mxGeometry x="160" y="310" width="120" height="60" as="geometry" />
        </mxCell>
        <mxCell id="QECgvXRe7AXAUNzWZ8xF-14" value="" style="edgeStyle=orthogonalEdgeStyle;curved=0;rounded=1;sketch=0;orthogonalLoop=1;jettySize=auto;html=1;fontColor=#46495D;strokeColor=#788AA3;fillColor=#B2C9AB;" edge="1" parent="WIyWlLk6GJQsqaUBKTNV-1" source="QECgvXRe7AXAUNzWZ8xF-9" target="QECgvXRe7AXAUNzWZ8xF-13">
          <mxGeometry relative="1" as="geometry" />
        </mxCell>
        <mxCell id="QECgvXRe7AXAUNzWZ8xF-18" value="Yes" style="edgeLabel;html=1;align=center;verticalAlign=middle;resizable=0;points=[];fontColor=#46495D;" vertex="1" connectable="0" parent="QECgvXRe7AXAUNzWZ8xF-14">
          <mxGeometry x="-0.3191" relative="1" as="geometry">
            <mxPoint as="offset" />
          </mxGeometry>
        </mxCell>
        <mxCell id="QECgvXRe7AXAUNzWZ8xF-26" style="edgeStyle=orthogonalEdgeStyle;curved=0;rounded=1;sketch=0;orthogonalLoop=1;jettySize=auto;html=1;fontColor=#46495D;strokeColor=#788AA3;fillColor=#B2C9AB;entryX=1;entryY=0.5;entryDx=0;entryDy=0;" edge="1" parent="WIyWlLk6GJQsqaUBKTNV-1" source="QECgvXRe7AXAUNzWZ8xF-9" target="QECgvXRe7AXAUNzWZ8xF-24">
          <mxGeometry relative="1" as="geometry">
            <mxPoint x="330" y="1150" as="targetPoint" />
            <Array as="points">
              <mxPoint x="340" y="480" />
              <mxPoint x="340" y="940" />
            </Array>
          </mxGeometry>
        </mxCell>
        <mxCell id="QECgvXRe7AXAUNzWZ8xF-27" value="No" style="edgeLabel;html=1;align=center;verticalAlign=middle;resizable=0;points=[];fontColor=#46495D;" vertex="1" connectable="0" parent="QECgvXRe7AXAUNzWZ8xF-26">
          <mxGeometry x="0.0044" y="2" relative="1" as="geometry">
            <mxPoint as="offset" />
          </mxGeometry>
        </mxCell>
        <mxCell id="QECgvXRe7AXAUNzWZ8xF-9" value="是否是处方药" style="rhombus;whiteSpace=wrap;html=1;shadow=0;fontColor=#46495D;strokeColor=#788AA3;strokeWidth=1;fillColor=#B2C9AB;glass=0;sketch=1;" vertex="1" parent="WIyWlLk6GJQsqaUBKTNV-1">
          <mxGeometry x="180" y="440" width="80" height="80" as="geometry" />
        </mxCell>
        <mxCell id="QECgvXRe7AXAUNzWZ8xF-19" style="edgeStyle=orthogonalEdgeStyle;curved=0;rounded=1;sketch=0;orthogonalLoop=1;jettySize=auto;html=1;fontColor=#46495D;strokeColor=#788AA3;fillColor=#B2C9AB;" edge="1" parent="WIyWlLk6GJQsqaUBKTNV-1" source="QECgvXRe7AXAUNzWZ8xF-13" target="QECgvXRe7AXAUNzWZ8xF-5">
          <mxGeometry relative="1" as="geometry">
            <mxPoint x="90" y="210" as="targetPoint" />
            <Array as="points">
              <mxPoint x="90" y="640" />
              <mxPoint x="90" y="200" />
            </Array>
          </mxGeometry>
        </mxCell>
        <mxCell id="QECgvXRe7AXAUNzWZ8xF-20" value="No" style="edgeLabel;html=1;align=center;verticalAlign=middle;resizable=0;points=[];fontColor=#46495D;" vertex="1" connectable="0" parent="QECgvXRe7AXAUNzWZ8xF-19">
          <mxGeometry x="-0.014" y="1" relative="1" as="geometry">
            <mxPoint as="offset" />
          </mxGeometry>
        </mxCell>
        <mxCell id="QECgvXRe7AXAUNzWZ8xF-23" value="" style="edgeStyle=orthogonalEdgeStyle;curved=0;rounded=1;sketch=0;orthogonalLoop=1;jettySize=auto;html=1;fontColor=#46495D;strokeColor=#788AA3;fillColor=#B2C9AB;" edge="1" parent="WIyWlLk6GJQsqaUBKTNV-1" source="QECgvXRe7AXAUNzWZ8xF-13" target="QECgvXRe7AXAUNzWZ8xF-22">
          <mxGeometry relative="1" as="geometry" />
        </mxCell>
        <mxCell id="QECgvXRe7AXAUNzWZ8xF-13" value="是否有药师" style="rhombus;whiteSpace=wrap;html=1;shadow=0;fontColor=#46495D;strokeColor=#788AA3;strokeWidth=1;fillColor=#B2C9AB;glass=0;sketch=1;" vertex="1" parent="WIyWlLk6GJQsqaUBKTNV-1">
          <mxGeometry x="180" y="600" width="80" height="80" as="geometry" />
        </mxCell>
        <mxCell id="QECgvXRe7AXAUNzWZ8xF-25" value="" style="edgeStyle=orthogonalEdgeStyle;curved=0;rounded=1;sketch=0;orthogonalLoop=1;jettySize=auto;html=1;fontColor=#46495D;strokeColor=#788AA3;fillColor=#B2C9AB;" edge="1" parent="WIyWlLk6GJQsqaUBKTNV-1" source="QECgvXRe7AXAUNzWZ8xF-22" target="QECgvXRe7AXAUNzWZ8xF-24">
          <mxGeometry relative="1" as="geometry" />
        </mxCell>
        <mxCell id="QECgvXRe7AXAUNzWZ8xF-22" value="添加处方单流程" style="shape=process;whiteSpace=wrap;html=1;backgroundOutline=1;shadow=0;fontColor=#46495D;strokeColor=#788AA3;strokeWidth=1;fillColor=#B2C9AB;glass=0;sketch=1;" vertex="1" parent="WIyWlLk6GJQsqaUBKTNV-1">
          <mxGeometry x="160" y="770" width="120" height="60" as="geometry" />
        </mxCell>
        <mxCell id="QECgvXRe7AXAUNzWZ8xF-24" value="下单" style="whiteSpace=wrap;html=1;shadow=0;fontColor=#46495D;strokeColor=#788AA3;strokeWidth=1;fillColor=#B2C9AB;glass=0;sketch=1;" vertex="1" parent="WIyWlLk6GJQsqaUBKTNV-1">
          <mxGeometry x="160" y="910" width="120" height="60" as="geometry" />
        </mxCell>
      </root>
    </mxGraphModel>
  </diagram>
</mxfile>
